<svg xmlns="http://www.w3.org/2000/svg" fill="none" viewBox="0 0 161 101"><defs/><g clip-path="url(#clip0)"><path fill="#115E8C" d="M8.825 29.666H4.157L3.29 31.81H.104l4.873-11.038h3.075L12.94 31.81H9.692l-.867-2.144zm-.915-2.302L6.49 23.83l-1.418 3.533H7.91zM24.325 20.772V31.81h-3.123v-4.304h-4.257v4.304h-3.122V20.772h3.122v4.147h4.257v-4.147h3.123zm7.768 11.26c-1.167 0-2.218-.248-3.153-.742a5.64 5.64 0 01-2.192-2.05c-.526-.872-.789-1.855-.789-2.949 0-1.093.263-2.076.789-2.948a5.64 5.64 0 012.192-2.05c.935-.494 1.986-.741 3.153-.741s2.213.247 3.138.74a5.5 5.5 0 012.192 2.05c.536.873.804 1.856.804 2.95 0 1.093-.268 2.076-.804 2.948a5.5 5.5 0 01-2.192 2.05c-.925.494-1.97.741-3.138.741zm0-2.587c.557 0 1.062-.131 1.514-.394a2.85 2.85 0 001.072-1.104c.263-.483.395-1.035.395-1.656 0-.62-.132-1.167-.395-1.64a2.822 2.822 0 00-1.072-1.12 2.957 2.957 0 00-1.514-.393c-.557 0-1.061.131-1.513.394-.452.263-.81.636-1.073 1.12-.263.472-.394 1.02-.394 1.64 0 .62.131 1.171.394 1.655.263.473.62.841 1.073 1.104.452.263.956.394 1.513.394zm7.77-8.673h3.122v8.563h5.267v2.475h-8.39V20.772zm9.624 0h3.122V31.81h-3.122V20.772zm15.846 0V31.81h-2.57L57.89 25.93v5.881h-3.06V20.772h2.571l4.873 5.882v-5.882h3.059zm2.202 0h3.123V31.81h-3.123V20.772zM7.985 50.212H5.204v4.79h-5.1V36.973h8.242c1.631 0 3.048.275 4.25.824 1.202.533 2.129 1.305 2.781 2.318.653.996.979 2.172.979 3.529 0 1.305-.31 2.447-.927 3.425-.601.962-1.468 1.717-2.602 2.267l3.89 5.666h-5.46l-3.272-4.79zm3.22-6.568c0-.841-.266-1.494-.799-1.957-.532-.464-1.322-.696-2.37-.696H5.205v5.28h2.833c1.047 0 1.837-.223 2.37-.67.532-.463.798-1.116.798-1.957zM28.26 55.363c-1.906 0-3.623-.404-5.15-1.21-1.512-.808-2.705-1.924-3.581-3.349-.858-1.425-1.288-3.03-1.288-4.816s.43-3.392 1.288-4.817c.876-1.425 2.07-2.54 3.58-3.348 1.528-.807 3.245-1.21 5.151-1.21 1.906 0 3.615.403 5.126 1.21 1.528.807 2.721 1.923 3.58 3.348.876 1.425 1.313 3.031 1.313 4.817 0 1.785-.438 3.39-1.313 4.816-.859 1.425-2.052 2.541-3.58 3.348-1.511.807-3.22 1.21-5.126 1.21zm0-4.224c.91 0 1.735-.215 2.473-.644a4.654 4.654 0 001.751-1.803c.43-.79.644-1.691.644-2.704 0-1.013-.215-1.906-.644-2.679a4.61 4.61 0 00-1.751-1.829c-.739-.429-1.563-.643-2.473-.643-.91 0-1.734.214-2.472.643a4.61 4.61 0 00-1.752 1.83c-.429.772-.644 1.665-.644 2.678s.215 1.914.644 2.704a4.654 4.654 0 001.752 1.803c.738.43 1.562.644 2.472.644zm15.86-11.05c.48.224.85.559 1.108 1.005.274.43.412.936.412 1.52 0 .858-.275 1.554-.825 2.086-.549.532-1.253.798-2.111.798-.859 0-1.563-.266-2.112-.798-.55-.532-.825-1.228-.825-2.086 0-.395.052-.79.155-1.185.103-.395.335-.979.695-1.752l1.649-3.786h3.065l-1.21 4.199zm13.783 8.449v6.464h-5.1V48.46l-6.877-11.487h5.383l4.276 7.16 4.275-7.16h4.946l-6.903 11.565zm18.804 6.464l-3.735-5.589-3.683 5.59h-5.82l6.567-9.118-6.284-8.912h5.743l3.606 5.203 3.554-5.203h5.512l-6.284 8.706 6.696 9.323h-5.872zM95.412 51.5H87.79l-1.417 3.503H81.17l7.96-18.029h5.021l7.985 18.03h-5.306l-1.416-3.504zm-1.493-3.76L91.6 41.97l-2.318 5.77h4.636zm12.594-6.722h-5.538v-4.044h16.149v4.044h-5.512v13.985h-5.099V41.017zm24.339 4.584h4.507v7.47c-1.03.738-2.215 1.305-3.554 1.7a14.146 14.146 0 01-4.018.592c-1.889 0-3.588-.395-5.1-1.185-1.511-.807-2.695-1.923-3.554-3.348-.858-1.425-1.288-3.04-1.288-4.842 0-1.803.43-3.417 1.288-4.842.859-1.426 2.052-2.533 3.58-3.323 1.528-.807 3.254-1.21 5.177-1.21 1.683 0 3.194.283 4.533.85 1.34.566 2.456 1.382 3.349 2.446l-3.246 2.937c-1.219-1.34-2.678-2.01-4.378-2.01-1.546 0-2.79.473-3.735 1.417-.944.927-1.416 2.172-1.416 3.735 0 .996.214 1.889.643 2.678a4.74 4.74 0 001.803 1.829c.773.43 1.657.644 2.653.644.979 0 1.898-.198 2.756-.593v-4.945zm19.82 5.898h-7.624l-1.416 3.503h-5.203l7.959-18.029h5.022l7.984 18.03h-5.305l-1.417-3.504zm-1.494-3.76l-2.318-5.77-2.318 5.77h4.636zM68.12 71.279c-1.166 0-2.218-.247-3.153-.742a5.64 5.64 0 01-2.192-2.05c-.526-.872-.788-1.855-.788-2.948 0-1.094.262-2.077.788-2.949a5.64 5.64 0 012.192-2.05c.935-.494 1.987-.741 3.154-.741 1.166 0 2.212.247 3.138.741a5.498 5.498 0 012.191 2.05c.537.872.805 1.855.805 2.949 0 1.093-.268 2.076-.805 2.948a5.498 5.498 0 01-2.192 2.05c-.925.495-1.97.742-3.137.742zm0-2.587c.558 0 1.062-.13 1.514-.394a2.85 2.85 0 001.073-1.103c.262-.484.394-1.036.394-1.656 0-.62-.132-1.167-.394-1.64a2.822 2.822 0 00-1.073-1.12 2.957 2.957 0 00-1.513-.394c-.558 0-1.062.131-1.514.394-.452.263-.81.636-1.073 1.12-.262.473-.394 1.02-.394 1.64 0 .62.132 1.172.394 1.656.263.473.62.84 1.073 1.103.452.263.956.394 1.514.394zm7.77-8.672h3.122v8.562h5.267v2.476h-8.39V60.02zm9.624 0h3.123v11.038h-3.123V60.02zm9.223 11.259c-.893 0-1.76-.11-2.602-.331-.84-.221-1.524-.516-2.05-.884l1.025-2.302a6.63 6.63 0 001.72.789c.65.2 1.292.3 1.923.3 1.198 0 1.798-.3 1.798-.9 0-.315-.174-.546-.52-.693-.337-.158-.884-.321-1.64-.49a16.718 16.718 0 01-2.082-.567 3.573 3.573 0 01-1.435-.993c-.4-.452-.6-1.062-.6-1.83 0-.672.184-1.277.552-1.813.368-.547.915-.978 1.64-1.293.736-.315 1.635-.473 2.697-.473.725 0 1.44.084 2.145.252a6.408 6.408 0 011.86.71l-.962 2.318c-1.051-.568-2.07-.852-3.059-.852-.62 0-1.072.095-1.356.284-.284.179-.426.415-.426.71 0 .294.169.515.505.662.336.147.878.3 1.624.457.841.179 1.535.373 2.082.584.557.2 1.035.525 1.434.977.41.442.615 1.046.615 1.814 0 .662-.183 1.261-.551 1.797-.368.537-.92.968-1.656 1.294-.736.315-1.63.473-2.68.473zm16.833-11.26v11.039h-3.122v-4.305h-4.258v4.305h-3.122V60.02h3.122v4.147h4.258V60.02h3.122zM91.368 83.51v2.36h-8.19v-1.864l3.937-3.681c.38-.36.636-.666.766-.917.13-.26.196-.52.196-.781 0-.34-.115-.606-.346-.796-.23-.19-.566-.286-1.007-.286-.39 0-.75.09-1.081.27-.321.17-.586.421-.797.752l-2.209-1.232a4.322 4.322 0 011.728-1.608c.742-.39 1.618-.586 2.63-.586.801 0 1.507.13 2.119.39.62.261 1.102.637 1.442 1.127.35.481.526 1.042.526 1.683a3.64 3.64 0 01-.376 1.623c-.24.501-.71 1.072-1.412 1.713L87.31 83.51h4.056zm5.494 2.57c-.902 0-1.703-.216-2.404-.646-.702-.431-1.252-1.057-1.653-1.879-.39-.831-.586-1.813-.586-2.945s.195-2.108.586-2.93c.4-.831.951-1.462 1.653-1.893.7-.43 1.502-.646 2.404-.646.891 0 1.688.215 2.389.646.701.43 1.247 1.062 1.638 1.893.4.822.601 1.798.601 2.93 0 1.132-.201 2.114-.601 2.945-.391.822-.937 1.448-1.638 1.879-.701.43-1.498.646-2.39.646zm0-2.434c.5 0 .896-.24 1.187-.722.3-.49.45-1.262.45-2.314s-.15-1.818-.45-2.299c-.29-.49-.686-.736-1.187-.736-.511 0-.917.245-1.217.736-.29.481-.436 1.247-.436 2.3 0 1.051.145 1.822.436 2.313.3.481.706.721 1.217.721zm13.655-.136v2.36h-8.189v-1.864l3.936-3.681c.381-.36.636-.666.767-.917.13-.26.195-.52.195-.781 0-.34-.115-.606-.346-.796-.23-.19-.566-.286-1.006-.286-.391 0-.752.09-1.082.27-.321.17-.586.421-.797.752l-2.208-1.232a4.313 4.313 0 011.728-1.608c.741-.39 1.617-.586 2.629-.586.802 0 1.508.13 2.119.39.621.261 1.102.637 1.442 1.127.351.481.526 1.042.526 1.683 0 .571-.125 1.112-.375 1.623-.241.501-.712 1.072-1.413 1.713l-1.983 1.833h4.057z"/><path fill="#115E8C" d="M116.445 79.558c.872.18 1.538.541 1.999 1.082.47.531.706 1.177.706 1.939 0 .62-.17 1.197-.511 1.728-.331.53-.841.961-1.533 1.292-.681.32-1.527.48-2.539.48-.741 0-1.478-.09-2.209-.27-.721-.18-1.347-.435-1.878-.766l1.082-2.239c.411.28.871.496 1.382.646.521.15 1.032.226 1.533.226.511 0 .916-.096 1.217-.286.3-.19.451-.46.451-.811 0-.681-.536-1.022-1.608-1.022h-1.247v-1.878l1.878-2.029h-4.147v-2.299h7.603v1.863l-2.179 2.344z"/><path fill="#A7D5F2" fill-rule="evenodd" d="M23.377 9.932a4.094 4.094 0 01-3.343-1.745c-.075-.109-.134-.193-.199-.312-.063-.116-.123-.215-.176-.334-.598-1.333-.459-2.857.367-4.026a4.011 4.011 0 01.94-.96c.991-.695 2.087-.956 3.32-.683.515.114 1.152.401 1.558.73.074.06.146.111.215.173.213.187.464.464.63.7.029.042.053.07.085.118.973 1.443.877 3.25-.098 4.652-.055.079-.117.145-.172.216-.058.076-.108.113-.172.196l-.405.371a4.126 4.126 0 01-2.55.905v-.001zm10.01 7.54h-1.508a8.3 8.3 0 00-.493-2.163 5.736 5.736 0 00-.405-.923c-.057-.097-.095-.191-.156-.294l-.516-.813a3.046 3.046 0 00-.183-.245l-.398-.481c-.71-.768-1.55-1.437-2.502-1.912-.34-.17-.254-.17-.558.047-.168.12-.371.224-.548.331-.1.06-.186.1-.302.148-.107.044-.188.084-.3.129a5.85 5.85 0 01-3.046.338c-.775-.128-1.33-.346-1.976-.68a4.77 4.77 0 01-.79-.538 5.815 5.815 0 01-.686-.642c-.574-.652-1.025-1.396-1.262-2.253a9.022 9.022 0 01-.216-1.112l-.03-.4c-.016-.57.07-1.16.18-1.598.09-.354.19-.663.345-.984.142-.293.297-.582.477-.852.172-.257.367-.523.588-.74.534-.53 1.102-.978 1.79-1.297A6.003 6.003 0 0122.966 0h.813c.161.012.322.032.481.059.13.022.24.04.363.066.464.095.901.26 1.323.455.427.197.848.473 1.198.785.153.136.325.26.458.42.24.286.474.554.685.868.063.093.112.179.171.279.034.056.045.09.077.148.03.055.048.077.075.128.03.056.042.088.07.156.025.062.05.099.073.151.242.538.414 1.173.45 1.758.035.576.034 1.136-.07 1.647a5.873 5.873 0 01-.895 2.19c-.059.087-.124.167-.18.25l1.304.821c.057.039.077.06.126.099.348.266.687.552.997.863l.224.245c.154.16.3.313.435.485.5.642.914 1.263 1.28 1.99.276.547.46 1.084.639 1.692.205.699.29 1.293.325 1.918h-.001zm-18.47 0h-1.513a8.76 8.76 0 01.23-1.57c.157-.633.344-1.248.63-1.822.13-.264.254-.546.407-.798.053-.088.093-.167.152-.256.033-.05.047-.08.078-.127.263-.41.554-.802.868-1.175l1.013-1.031c.044-.042.065-.05.112-.092.13-.115.546-.493.7-.506.016.058.069.108.109.157l.357.44c.086.1.155.188.238.293.072.093.185.18.216.295a4.706 4.706 0 00-.354.26c-.204.165-.648.54-.817.716l-.435.484c-.383.49-.7.903-.996 1.456a9.386 9.386 0 00-.568 1.27c-.052.144-.1.31-.145.47-.042.152-.089.314-.123.489-.066.329-.159.701-.159 1.047z" clip-rule="evenodd"/><path fill="#A7D5F2" fill-rule="evenodd" d="M7.852 13.366a2.529 2.529 0 01-2.066-1.078c-.047-.067-.083-.12-.123-.193-.04-.071-.077-.133-.11-.207A2.514 2.514 0 015.781 9.4a2.467 2.467 0 01.58-.593c.613-.43 1.29-.59 2.052-.422.319.07.712.248.963.451.046.037.09.069.133.107.132.116.287.287.39.433.018.026.032.043.052.073.602.892.543 2.008-.06 2.875-.034.048-.073.09-.107.133-.036.047-.067.07-.106.121l-.25.23a2.55 2.55 0 01-1.576.559zm6.129 4.107h-.955a5.612 5.612 0 00-.224-.784 3.53 3.53 0 00-.251-.57c-.035-.06-.058-.117-.096-.181l-.318-.503a1.976 1.976 0 00-.114-.152l-.246-.297a5.443 5.443 0 00-1.546-1.182c-.21-.105-.157-.104-.345.03-.104.074-.23.137-.339.204a1.237 1.237 0 01-.186.092c-.067.027-.117.051-.186.079-.517.207-1.2.322-1.882.21a3.826 3.826 0 01-1.222-.42 2.922 2.922 0 01-.488-.333 3.526 3.526 0 01-1.204-1.79 5.565 5.565 0 01-.133-.687l-.019-.247c-.01-.352.044-.717.111-.988.055-.218.118-.41.213-.608.088-.181.184-.36.295-.526.106-.16.227-.323.363-.458.33-.327.681-.604 1.106-.8a3.71 3.71 0 011.283-.333H8.1c.1.007.2.019.298.035.08.014.148.025.225.041.286.06.556.16.818.282.263.122.524.292.74.485.094.084.2.16.283.26.148.176.293.342.423.536.039.058.07.11.106.172.02.035.028.056.047.092.019.034.03.047.047.08.018.034.025.053.043.095.016.038.03.062.045.094.15.333.256.725.278 1.086.021.356.02.703-.043 1.018a3.63 3.63 0 01-.553 1.354c-.037.054-.077.103-.111.154l.806.508c.035.024.047.037.077.06.216.165.425.342.616.534l.139.152c.095.099.186.193.269.3.309.396.565.78.791 1.229.17.338.284.67.395 1.045.066.224.112.43.143.632zm-11.28 0h-.954c.025-.151.049-.277.083-.417a5.46 5.46 0 01.389-1.126c.081-.163.158-.337.252-.493.033-.054.058-.103.094-.158.02-.03.03-.05.048-.079.163-.254.343-.495.537-.726l.626-.637c.027-.026.04-.031.069-.057.08-.071.337-.305.433-.313.01.036.042.067.067.097l.22.272c.054.062.096.116.148.182.044.057.114.11.133.181a2.8 2.8 0 00-.219.161c-.126.102-.4.334-.505.443l-.268.299c-.237.303-.433.558-.616.9-.137.255-.251.509-.351.785-.032.089-.062.191-.09.29-.026.093-.054.193-.076.302l-.02.093zM38.705 13.366a2.53 2.53 0 01-2.066-1.078c-.047-.067-.083-.12-.123-.193-.039-.071-.076-.133-.11-.207a2.515 2.515 0 01.809-3.08c.612-.43 1.289-.592 2.051-.423.319.07.712.248.963.451.046.037.09.069.134.107.13.116.286.287.388.433.018.026.033.043.053.073.601.892.542 2.008-.06 2.875-.034.048-.072.09-.106.133-.036.047-.067.07-.107.121l-.25.23a2.55 2.55 0 01-1.576.559zm6.13 4.107h-.955a5.625 5.625 0 00-.225-.784 3.567 3.567 0 00-.25-.57c-.036-.06-.059-.117-.097-.181l-.318-.503a2.03 2.03 0 00-.114-.152l-.246-.297a5.442 5.442 0 00-1.546-1.182c-.21-.105-.157-.104-.345.03-.104.074-.23.137-.338.204a1.239 1.239 0 01-.187.092c-.067.027-.116.051-.186.079-.517.207-1.2.322-1.882.21a3.825 3.825 0 01-1.221-.42 2.94 2.94 0 01-.489-.333 3.526 3.526 0 01-1.204-1.79 5.578 5.578 0 01-.133-.687l-.019-.247c-.01-.352.044-.717.112-.988.055-.218.117-.41.212-.608a4.44 4.44 0 01.295-.526c.107-.16.227-.323.364-.458.33-.327.68-.604 1.106-.8a3.71 3.71 0 011.283-.333h.5c.1.007.2.019.298.035.081.014.148.025.225.041.286.06.556.16.817.282.264.122.524.292.74.485.095.084.202.16.284.26.148.176.292.342.423.536.039.058.07.11.106.172.02.035.028.056.047.092.019.034.03.047.047.08.018.034.026.053.043.095.016.038.03.062.045.094.15.333.256.725.278 1.086.022.356.021.703-.043 1.018a3.614 3.614 0 01-.553 1.354c-.037.054-.077.103-.112.154l.806.508c.035.024.048.037.078.06.215.165.425.342.616.534l.139.152c.095.099.186.193.269.3.308.396.564.78.79 1.229.171.338.285.67.395 1.045.066.224.112.43.144.632zm-11.28 0h-.954c.025-.151.048-.277.082-.417.098-.391.213-.77.39-1.126.08-.163.157-.337.251-.493.033-.054.058-.103.095-.158.02-.03.029-.05.047-.079.163-.254.343-.495.537-.726l.626-.637c.028-.026.04-.031.07-.057.08-.071.337-.305.432-.313.01.036.042.067.067.097l.22.272c.054.062.097.116.148.182.045.057.114.11.133.181-.078.053-.144.1-.218.161-.126.102-.4.334-.505.443l-.27.299c-.236.303-.431.558-.615.9-.136.255-.25.509-.35.785-.033.089-.063.191-.09.29-.027.093-.055.193-.077.302l-.019.093zM117.847 62.442a2.673 2.673 0 11.176 5.343 2.673 2.673 0 01-.176-5.343zm-3.425 2.664c0 .035-.002.074.003.107.005.034-.001.07.004.105l.018.2c.012.201.113.61.189.8.01.026.021.052.03.079.038.104.088.206.137.305l.076.142c.03.058.068.115.104.17l.043.066c.051.078.107.15.164.223l.099.12c.032.04.068.076.105.113l.091.092.003.003.102.096c.187.165.388.313.605.438l.293.15a3.555 3.555 0 002.318.203c.169-.043.329-.102.49-.166.079-.031.152-.068.227-.105.026-.013.049-.023.072-.038.023-.013.048-.027.071-.038l.136-.083a.872.872 0 00.034-.02l.034-.021c.006-.005.008-.007.014-.01l.117-.083c.106-.073.205-.159.302-.244l.147-.145a3.405 3.405 0 00.613-.852l.037-.073a3.526 3.526 0 00.259-2.307l-.02-.089c-.035-.14-.085-.277-.134-.412a3.123 3.123 0 00-.316-.618 4.697 4.697 0 00-.257-.35l-.076-.087c-.012-.012-.013-.017-.025-.03l-.367-.347a2.14 2.14 0 00-.092-.072c-.085-.064-.168-.127-.26-.182-.047-.027-.091-.056-.136-.082-.094-.054-.196-.1-.293-.15a.77.77 0 00-.076-.033c-.028-.011-.049-.022-.077-.032l-.16-.058a3.56 3.56 0 00-1.132-.19l-.412.025c-.061.004-.134.02-.19.029a3.388 3.388 0 00-.841.256l-.074.035-.073.037-.279.157-.033.022a4.638 4.638 0 00-.35.256c-.021.017-.037.034-.058.05-.042.033-.077.069-.114.106l-.043.04-.015.015-.108.11a2.55 2.55 0 00-.151.178l-.163.22-.021.032c-.017.023-.029.044-.044.066a2.333 2.333 0 00-.121.207l-.176.375a3.518 3.518 0 00-.249 1.29h-.001z" clip-rule="evenodd"/><path fill="#A7D5F2" fill-rule="evenodd" d="M117.397 65.754a6.295 6.295 0 01-.228-.231l-.622-.64c-.015-.017-.042-.05-.059-.06l-.595.58c.008.02.237.247.277.29l.607.624c.166.176.349.356.51.527.027.028.065.074.095.097.023-.013.133-.126.162-.154l.161-.161c.432-.42.864-.855 1.297-1.275l.971-.96c-.044-.05-.099-.098-.146-.147l-.439-.445-.249.243-.124.12c-.036.036-.09.092-.124.124l-.746.733c-.077.075-.17.17-.248.245l-.123.12-.377.369zM108.44 90.052c2.528-.089 4.564 1.92 4.642 4.345a4.495 4.495 0 01-8.986.301 4.495 4.495 0 014.344-4.646zm-5.759 4.48c0 .06-.003.125.005.18.009.057-.002.119.007.176l.03.338c.02.338.19 1.026.317 1.344.017.043.035.087.051.132.064.176.147.346.23.513l.128.24c.05.097.115.193.174.285l.072.112c.087.13.18.252.276.375l.167.2c.054.07.115.128.177.19l.153.157.004.004.173.161a6.21 6.21 0 001.016.737l.493.25c.289.148.79.301 1.105.373.934.213 1.87.197 2.793-.032.284-.07.554-.17.824-.277.132-.053.256-.115.382-.178.044-.021.081-.038.121-.062.038-.023.081-.046.119-.066l.229-.138.056-.035c.022-.013.038-.021.057-.035l.024-.018.196-.138c.179-.122.346-.267.508-.41l.248-.245a5.7 5.7 0 00.617-.744c.15-.222.294-.448.414-.688l.061-.123c.58-1.167.733-2.63.437-3.88a9.645 9.645 0 00-.036-.148c-.058-.237-.142-.466-.224-.694a5.28 5.28 0 00-.532-1.038 7.975 7.975 0 00-.431-.587l-.128-.148c-.021-.02-.024-.03-.042-.05l-.618-.584c-.016-.015-.033-.027-.05-.041a3.737 3.737 0 00-.104-.08c-.143-.108-.283-.214-.438-.306-.078-.046-.151-.094-.228-.139-.159-.09-.329-.167-.492-.25a1.548 1.548 0 00-.128-.057c-.048-.018-.084-.037-.131-.053l-.269-.098a6.007 6.007 0 00-1.903-.318l-.692.041c-.104.007-.225.034-.32.048a4.528 4.528 0 00-.6.135c-.238.07-.591.183-.814.296-.044.022-.082.036-.126.058l-.122.062-.47.265-.055.036c-.205.132-.396.282-.588.431-.035.028-.063.057-.099.085-.069.054-.128.115-.19.177l-.073.069a2.956 2.956 0 00-.027.024l-.18.187a4.201 4.201 0 00-.254.297l-.273.37c-.015.02-.022.034-.037.055-.027.038-.048.073-.073.11-.073.11-.14.231-.203.349l-.297.63a6.096 6.096 0 00-.263.847 6.107 6.107 0 00-.155 1.322h.001z" clip-rule="evenodd"/><path fill="#A7D5F2" fill-rule="evenodd" d="M107.682 95.622a10.75 10.75 0 01-.383-.388l-1.045-1.075c-.027-.028-.071-.083-.101-.1l-1.001.976c.014.031.4.415.466.486l1.021 1.05c.28.295.587.598.859.885.044.046.109.126.159.163.039-.021.223-.21.272-.258l.271-.271c.726-.705 1.454-1.439 2.181-2.145l1.632-1.614c-.073-.082-.165-.164-.244-.246l-.739-.748-.419.409-.208.201c-.061.06-.152.155-.208.21l-1.256 1.232c-.129.126-.285.284-.415.411l-.208.202-.635.621h.001z" clip-rule="evenodd"/></g><defs><clipPath id="clip0"><path fill="#fff" d="M0 0h161v100.449H0z"/></clipPath></defs></svg>